<svg xmlns="http://www.w3.org/2000/svg" width="44" height="44" viewBox="0 0 44 44" fill="none">
  <path d="M38.6417 10.3078C36.436 9.83794 34.4387 8.67864 32.9409 6.99894C31.4431 5.31925 30.5232 3.20698 30.3152 0.970073V0H22.7065V30.0745C22.7018 31.4059 22.2783 32.7024 21.4956 33.7818C20.7129 34.8611 19.6103 35.6692 18.3428 36.0922C17.0752 36.5153 15.7064 36.5322 14.4288 36.1405C13.1511 35.7488 12.0287 34.9683 11.2194 33.9086C10.3976 32.8311 9.94166 31.5209 9.91782 30.168C9.89397 28.8151 10.3034 27.4898 11.0868 26.3842C11.8702 25.2787 12.9868 24.4505 14.2747 24.0196C15.5626 23.5887 16.9548 23.5776 18.2495 23.9879V16.2889C15.3625 15.8914 12.4229 16.4026 9.84202 17.7509C7.26111 19.0993 5.16789 21.2174 3.85517 23.809C2.54246 26.4006 2.07589 29.336 2.52074 32.2047C2.96558 35.0734 4.29959 37.7318 6.33617 39.8082C8.27834 41.7874 10.7686 43.1453 13.4891 43.7085C16.2097 44.2718 19.037 44.0149 21.6102 42.9706C24.1835 41.9263 26.3859 40.1419 27.9364 37.8453C29.4868 35.5488 30.315 32.8441 30.3152 30.0767V14.7095C33.3901 16.8989 37.077 18.0729 40.8569 18.0662V10.5366C40.1125 10.5375 39.3701 10.4609 38.6417 10.3078Z" fill="#FEFEFE"/>
</svg>