<svg xmlns="http://www.w3.org/2000/svg" width="44" height="44" viewBox="0 0 44 44" fill="none">
  <path d="M32.2712 26.422C31.8291 26.2022 28.9557 24.8839 28.5136 24.6642C28.0715 24.4444 27.6295 24.4444 27.1874 24.8839C26.7453 25.3233 25.8612 26.6417 25.4191 27.0811C25.1981 27.5206 24.756 27.5206 24.3139 27.3009C22.7667 26.6417 21.2194 25.7628 19.8932 24.6642C18.788 23.5655 17.6829 22.2472 16.7987 20.9288C16.5777 20.4894 16.7987 20.0499 17.0197 19.8302C17.2408 19.6105 17.4618 19.171 17.9039 18.9513C18.1249 18.7316 18.346 18.2921 18.346 18.0724C18.567 17.8527 18.567 17.4132 18.346 17.1935C18.1249 16.9738 17.0197 14.3371 16.5777 13.2385C16.3566 11.7004 15.9146 11.7004 15.4725 11.7004H14.3673C13.9252 11.7004 13.2621 12.1398 13.0411 12.3596C11.7149 13.6779 11.0518 15.216 11.0518 16.9738C11.2728 18.9513 11.9359 20.9288 13.2621 22.6866C15.6935 26.2022 18.788 29.0587 22.5456 30.8165C23.6508 31.2559 24.535 31.6954 25.6401 31.9151C26.7453 32.3546 27.8505 32.3546 29.1767 32.1348C30.724 31.9151 32.0502 30.8165 32.9343 29.4981C33.3764 28.6192 33.3764 27.7403 33.1554 26.8614L32.2712 26.422ZM37.7971 6.42697C29.1767 -2.14232 15.2515 -2.14232 6.63107 6.42697C-0.442071 13.4582 -1.76829 24.2247 3.0945 32.794L0 44L11.7149 40.9238C15.0304 42.6816 18.567 43.5605 22.1036 43.5605C34.2605 43.5605 43.9861 33.8926 43.9861 21.8077C44.2071 16.0949 41.7757 10.6017 37.7971 6.42697ZM31.8291 37.1885C28.9557 38.9463 25.6401 40.0449 22.1036 40.0449C18.788 40.0449 15.6935 39.166 12.8201 37.628L12.157 37.1885L5.30486 38.9463L7.07314 32.3546L6.63107 31.6954C1.32621 22.9064 3.97864 11.9201 12.599 6.42697C21.2194 0.933833 32.2712 3.79026 37.5761 12.1398C42.8809 20.7091 40.4495 31.9151 31.8291 37.1885Z" fill="#FEFEFE"/>
</svg>